<?xml version="1.0" standalone="no"?>
<!DOCTYPE svg PUBLIC "-//W3C//DTD SVG 20010904//EN"
 "http://www.w3.org/TR/2001/REC-SVG-20010904/DTD/svg10.dtd">
<svg version="1.0" xmlns="http://www.w3.org/2000/svg"
 width="640.000000pt" height="640.000000pt" viewBox="0 0 640.000000 640.000000"
 preserveAspectRatio="xMidYMid meet">

<g transform="translate(0.000000,640.000000) scale(0.100000,-0.100000)"
fill="#000000" stroke="none">
<path d="M2840 6376 c-500 -64 -884 -195 -1310 -449 -233 -139 -491 -351 -686
-565 -423 -462 -705 -1040 -798 -1637 -34 -213 -41 -319 -40 -570 2 -426 80
-807 246 -1199 162 -384 379 -706 678 -1006 164 -165 239 -230 410 -352 453
-325 937 -508 1525 -579 147 -18 543 -15 696 5 219 28 349 53 514 101 1050
303 1869 1111 2183 2155 100 330 127 533 126 930 0 268 -2 311 -27 467 -109
703 -428 1323 -935 1814 -477 463 -1076 763 -1726 866 -140 22 -200 25 -456
28 -206 3 -327 0 -400 -9z m580 -2376 c283 -80 505 -306 581 -590 43 -163 26
-395 -40 -545 -30 -69 -107 -182 -164 -242 -263 -279 -716 -335 -1039 -130
-159 101 -290 267 -351 447 -31 92 -32 100 -31 260 0 158 1 169 31 258 82 245
278 445 518 527 147 50 349 56 495 15z m-1356 -1137 c15 -53 50 -142 78 -196
191 -371 546 -611 956 -645 493 -42 951 221 1167 670 25 51 55 132 67 181 l23
87 827 0 c456 0 828 -3 828 -8 0 -73 -49 -340 -91 -497 -186 -691 -649 -1303
-1269 -1675 -515 -310 -1111 -444 -1733 -389 -240 21 -542 96 -787 196 -764
311 -1363 954 -1615 1736 -65 200 -125 489 -125 601 l0 36 823 0 823 0 28 -97z"/>
<path d="M3120 3599 c-73 -14 -163 -64 -214 -119 -224 -240 -102 -614 222
-681 114 -24 247 15 345 102 56 49 116 163 126 240 27 220 -118 417 -338 459
-61 11 -78 11 -141 -1z"/>
</g>
</svg>
